<?xml version="1.0" encoding="UTF-8"?><svg id="_レイヤー_1" xmlns="http://www.w3.org/2000/svg" viewBox="0 0 762.57 217.91"><defs><style>.cls-1,.cls-2{fill:#fff;}.cls-2{font-family:DIN2014-Bold, 'DIN 2014';font-size:70px;font-weight:700;}.cls-3{fill:none;stroke:#fff;stroke-miterlimit:10;stroke-width:6px;}</style></defs><g><path class="cls-3" d="M208.75,83.5c0-17.72-13.36-32.31-30.55-34.27,1.32-3.66,2.05-7.61,2.05-11.73,0-19.05-15.45-34.5-34.5-34.5s-34.5,15.45-34.5,34.5c0,3.41,.5,6.7,1.42,9.81-16.89,2.24-29.92,16.69-29.92,34.19"/><path class="cls-3" d="M126.26,169.32c1.77-4.15,2.74-8.71,2.74-13.5,0-17.72-13.36-32.31-30.55-34.27,1.32-3.66,2.05-7.61,2.05-11.73,0-19.05-15.45-34.5-34.5-34.5s-34.5,15.45-34.5,34.5c0,3.41,.5,6.7,1.42,9.81-16.89,2.24-29.92,16.69-29.92,34.19,0,5.58,1.33,10.84,3.68,15.5"/><path class="cls-3" d="M275.26,175.32c1.77-4.15,2.74-8.71,2.74-13.5,0-17.72-13.36-32.31-30.55-34.27,1.32-3.66,2.05-7.61,2.05-11.73,0-19.05-15.45-34.5-34.5-34.5s-34.5,15.45-34.5,34.5c0,3.41,.5,6.7,1.42,9.81-16.89,2.24-29.92,16.69-29.92,34.19,0,5.58,1.33,10.84,3.68,15.5"/><path class="cls-1" d="M143.25,79v64c0,3.22,5,3.22,5,0V79c0-3.22-5-3.22-5,0h0Z"/><path class="cls-1" d="M64.5,151.5v64c0,3.22,5,3.22,5,0v-64c0-3.22-5-3.22-5,0h0Z"/><path class="cls-1" d="M212.5,151.5v64c0,3.22,5,3.22,5,0v-64c0-3.22-5-3.22-5,0h0Z"/></g><text class="cls-2" transform="translate(317.79 128.43)"><tspan x="0" y="0">Forest Funding</tspan></text></svg>