<?xml version="1.0" encoding="UTF-8"?><svg id="_レイヤー_1" xmlns="http://www.w3.org/2000/svg" viewBox="0 0 128 128"><defs><style>.cls-1{fill:#4c4b4c;}</style></defs><path class="cls-1" d="M0,53.09c-.01,13.56,5.2,27.2,15.55,37.54,10.34,10.35,23.99,15.56,37.54,15.55,9.46,0,18.94-2.59,27.33-7.64l25.71,25.71c5,5,13.11,5,18.12,0,5-5,5-13.11,0-18.12l-25.71-25.71c5.05-8.4,7.65-17.87,7.64-27.34,.02-13.55-5.2-27.2-15.55-37.54C80.29,5.2,66.64,0,53.09,0,39.53,0,25.89,5.2,15.55,15.55,5.2,25.89-.02,39.54,0,53.09Zm20.49,0c.01-8.37,3.16-16.65,9.54-23.04,6.39-6.38,14.67-9.53,23.05-9.55,8.37,.01,16.65,3.16,23.04,9.55,6.38,6.39,9.53,14.67,9.55,23.04-.01,8.38-3.16,16.66-9.55,23.05-6.39,6.38-14.67,9.53-23.04,9.55-8.38-.02-16.66-3.16-23.04-9.55-6.39-6.39-9.54-14.67-9.55-23.05Z"/></svg>